<svg width="20" height="20" viewBox="0 0 20 20" fill="none" xmlns="http://www.w3.org/2000/svg">
<path d="M3.00054 0.924854C2.54531 0.711183 1.99177 0.884411 1.76413 1.31175C1.53655 1.73907 1.72106 2.25873 2.17628 2.4724L3.10105 2.90646C3.38651 3.04044 3.57781 3.30353 3.60672 3.6019C3.62927 3.83462 3.65112 4.06521 3.67271 4.29354L3.67528 4.32071C4.19307 9.7955 4.58396 13.9286 11.2971 13.9286C18.3011 13.9286 18.7646 9.2623 19.1667 5.19842C19.1667 4.71627 18.7747 4.3254 18.2912 4.3254H6.28706C5.85422 4.3254 5.49437 3.99395 5.45353 3.56304C5.44982 3.52386 5.44606 3.4846 5.44225 3.44527C5.35552 2.55017 4.78167 1.76089 3.9253 1.35894L3.00054 0.924854Z" fill="white"/>
<path d="M8.74999 19.1667C9.71702 19.1667 10.501 18.385 10.501 17.4206C10.501 16.4563 9.71702 15.6746 8.74999 15.6746C7.78296 15.6746 6.99899 16.4563 6.99899 17.4206C6.99899 18.385 7.78296 19.1667 8.74999 19.1667Z" fill="white"/>
<path d="M15.6696 17.4206C15.6696 18.385 14.8857 19.1667 13.9186 19.1667C12.9516 19.1667 12.1677 18.385 12.1677 17.4206C12.1677 16.4563 12.9516 15.6746 13.9186 15.6746C14.8857 15.6746 15.6696 16.4563 15.6696 17.4206Z" fill="white"/>
</svg>
